<svg xmlns="http://www.w3.org/2000/svg" viewBox="0 0 32 32">
  <path d="M4 6L4 8L26 8L26 24L13 24L13 26L30 26L30 24L28 24L28 6L4 6 z M 8.0019531 9C5.8032706 9 4 10.802666 4 13C4 15.198683 5.8040743 17 8.0019531 17C10.197134 17 12 15.198683 12 13C12 10.802666 10.19794 9 8.0019531 9 z M 8.0019531 11C9.1159662 11 10 11.883334 10 13C10 14.119317 9.1167719 15 8.0019531 15C6.881832 15 6 14.119317 6 13C6 11.883334 6.8826357 11 8.0019531 11 z M 4 18L4 26L6 26L6 20L9 20L9 26L11 26L11 20.658203L13.064453 21.75C13.648752 22.060158 14.351587 22.058921 14.935547 21.75L14.935547 21.751953L18.466797 19.884766L17.533203 18.115234L14.001953 19.982422L10.90625 18.347656C10.475078 18.120046 9.9935054 18 9.5039062 18L4 18 z" fill="#FFFFFF" />
</svg>